<?xml version="1.0" encoding="UTF-8"?>
<!DOCTYPE svg PUBLIC "-//W3C//DTD SVG 1.1//EN" "http://www.w3.org/Graphics/SVG/1.1/DTD/svg11.dtd">
<!-- Creator: CorelDRAW X7 -->
<svg xmlns="http://www.w3.org/2000/svg" xml:space="preserve" width="8.5in" height="11in" version="1.1" style="shape-rendering:geometricPrecision; text-rendering:geometricPrecision; image-rendering:optimizeQuality; fill-rule:evenodd; clip-rule:evenodd"
viewBox="0 0 8500 11000"
 xmlns:xlink="http://www.w3.org/1999/xlink"
 data-name="Layer 1">
 <defs>
  <style type="text/css">
   <![CDATA[
    .fil0 {fill:#000000}
   ]]>
  </style>
 </defs>
 <g id="Layer_x0020_1">
  <metadata id="CorelCorpID_0Corel-Layer"/>
  <g id="_1247699573328">
   <path class="fil0" d="M6499 4712c-110,-170 -240,-320 -414,-428 -28,-17 -47,-36 -96,-36 -26,-1 -29,16 -22,49 107,135 210,260 317,395 9,10 -5,24 -16,16 -74,-56 -139,-121 -209,-179 -85,-71 -255,-198 -270,-200 -16,-2 -18,3 -18,3 -17,4 -26,143 34,203 124,123 235,258 351,388 4,5 3,12 -1,16l-17 16c-5,4 -12,4 -16,-1 -123,-120 -332,-360 -368,-361 -18,0 -28,3 -47,28 -25,32 23,85 43,122 40,72 96,133 139,202 94,154 231,301 264,468 38,194 136,326 252,464 19,23 3,75 -1,117 -1,7 -7,11 -13,11 -39,-4 -83,-1 -113,-19 -108,-64 -207,-143 -314,-206 -343,-202 -1013,-82 -1214,439 -127,331 -158,665 -63,1008 9,32 18,64 28,96 4,13 -13,21 -21,11 -143,-192 -216,-406 -204,-647 12,-248 84,-480 189,-707 5,-9 -4,-19 -14,-16 -97,28 -183,54 -271,76 -99,25 -169,81 -208,176 -44,107 -91,213 -138,318 -173,381 -443,653 -870,719 -362,55 -682,-70 -977,-271 -20,-14 -37,-31 -57,-49 179,54 348,117 523,156 501,113 1011,-163 1194,-639 62,-159 114,-321 177,-479 51,-129 133,-176 270,-167 74,6 149,21 223,19 44,-1 116,-20 131,-30 15,-11 19,-42 8,-65 -11,-24 -96,-59 -146,-83 -1,0 0,0 -3,-1 -13,-20 2,-49 21,-61 20,-11 166,46 249,69 6,1 13,-2 15,-8 24,-80 12,-148 -60,-181 -87,-40 -183,-64 -277,-88 -39,-11 -81,-14 -122,-18 -13,-1 -14,-19 -2,-23 194,-54 514,152 525,131 11,-15 -2,-39 -8,-50 -148,-272 -487,-355 -789,-203 -294,147 -525,364 -694,640 -168,275 -513,300 -756,148 -10,-7 -6,-22 6,-22 110,1 216,4 322,-1 55,-3 122,-13 162,-46 131,-109 192,-262 252,-429 3,-8 -4,-16 -12,-15 -497,53 -938,-20 -1276,-362 -8,-8 0,-22 12,-19 154,42 321,98 491,123 581,81 1107,-95 1606,-372 121,-67 240,-146 340,-241 187,-178 295,-403 316,-665 4,-51 3,-111 85,-86 5,1 8,5 8,10 5,61 7,122 16,183 4,23 21,57 37,61 19,5 51,-13 67,-31 259,-286 198,-736 -156,-866 -201,-73 -386,-187 -538,-337 -281,-280 -611,-489 -1011,-544 -745,-102 -1363,153 -1850,717 -378,438 -500,962 -463,1529 15,227 55,453 52,679 -13,877 275,1639 860,2287 524,579 1172,927 1956,1000 606,55 1180,-60 1725,-333 332,-167 592,-403 752,-742 102,-217 119,-446 93,-681 -1,-9 7,-15 15,-12 161,55 270,22 335,-138 63,-154 111,-324 118,-490 25,-531 -160,-1004 -444,-1444l0 -1zm-1818 -1343c137,-81 272,-60 340,51 74,123 21,317 -108,393 -95,56 -295,-25 -366,-148 -58,-101 -7,-212 134,-296l0 0zm-408 1131c-43,64 -86,128 -128,192 -7,10 -23,5 -22,-7 7,-92 49,-162 135,-202 11,-5 21,7 15,17zm-129 -122c-101,141 -202,281 -300,418 -7,9 -21,5 -21,-6 -4,-117 132,-319 305,-428 11,-7 23,6 16,16zm-129 -137l-388 436c-9,10 -25,-1 -19,-13 95,-178 203,-345 393,-441 12,-6 23,9 14,18l0 0zm-880 -430c128,4 257,31 364,-5 103,-35 182,-136 272,-214 7,-6 17,-3 19,6 31,148 -69,292 -242,355 -156,56 -357,-2 -423,-124 -5,-8 1,-18 10,-18l0 0zm-1983 499c-19,-270 235,-500 502,-447 44,9 89,43 121,77 17,18 15,67 2,91 -8,16 -51,14 -79,18 -84,12 -178,4 -251,39 -99,48 -128,164 -93,254 32,85 173,165 276,157 11,-1 21,-7 30,-4 40,11 104,19 119,38 4,5 6,7 6,15l-3 24c-3,19 -12,37 -25,52 -7,8 -13,14 -14,15 -245,143 -572,-59 -591,-329l0 0z"/>
   <path class="fil0" d="M7399 7093c104,-392 139,-803 85,-1206 -52,-391 -176,-764 -360,-1114 -181,-342 -415,-656 -675,-943 -262,-290 -553,-553 -859,-795 -311,-246 -636,-474 -971,-686 -186,-119 -374,-237 -573,-333 -200,-97 -410,-171 -628,-214 -377,-72 -767,-61 -1136,45 -370,107 -683,287 -957,534 -278,248 -489,560 -631,903 -145,353 -203,744 -176,1125 8,117 23,234 28,352 6,130 7,261 6,392 -2,202 -13,402 4,603 34,408 129,812 283,1191 83,203 179,401 297,587 118,186 258,352 401,516 277,317 601,598 965,809 367,213 770,348 1190,398 208,24 418,25 626,4 26,-3 52,-6 78,-9 24,-3 48,-6 72,-9 7,-1 15,-2 22,-4 22,-3 -32,5 -7,1 76,-10 151,-21 227,-35 126,-24 251,-55 373,-94 253,-81 492,-199 734,-307 27,-12 54,-24 81,-36 14,-6 28,-11 41,-18 0,0 -30,12 -13,6 8,-4 17,-8 26,-11 50,-20 101,-38 153,-54 51,-15 103,-21 154,-35 -44,12 -10,2 4,0 13,-1 25,-2 37,-2 28,-2 57,-2 85,0 12,1 24,2 37,3 17,2 -18,-2 -18,-2 2,2 19,3 20,3 27,5 52,12 77,21 6,2 34,8 35,13 1,1 -31,-15 -14,-6 6,3 13,6 20,9 25,13 49,28 73,44 3,2 17,14 19,14 -1,0 -24,-19 -10,-7 8,7 17,14 25,21 17,15 33,31 48,48 6,6 10,13 16,19 -35,-36 -9,-12 -1,0 12,17 23,34 34,51 47,73 90,149 150,212 81,86 184,129 299,143 225,29 446,-108 553,-301 112,-200 78,-439 -17,-638 -39,-82 -94,-154 -151,-224 -22,-27 -44,-54 -65,-81 -17,-20 25,34 7,9 -5,-6 -9,-12 -14,-18 -11,-16 -22,-33 -33,-49 -33,-48 -65,-98 -93,-149 -11,-20 -22,-40 -32,-61 -5,-9 -9,-19 -14,-28 -2,-6 -8,-21 2,3 11,27 1,3 -1,-3 -13,-34 -24,-70 -30,-106 -1,-4 -2,-9 -3,-14 -3,-16 6,31 4,27 -3,-5 -2,-18 -2,-24 -1,-17 -2,-34 -1,-51 0,-17 2,-35 4,-52 3,-33 -6,37 -2,12 1,-8 2,-17 4,-25 7,-37 15,-73 24,-109 21,-89 43,-177 64,-266 20,-84 -26,-182 -115,-203 -89,-20 -182,26 -203,116 -40,169 -98,342 -106,517 -8,187 73,360 171,514 49,78 102,152 160,223 11,13 21,26 32,40 5,6 11,13 16,20 3,3 5,6 7,9 17,21 -5,-7 -9,-12 22,31 45,62 65,95 9,16 18,32 26,49 4,9 8,18 13,27 9,19 -13,-34 -7,-14 2,5 5,11 7,17 7,20 14,41 19,63 3,11 5,22 8,34 1,5 1,10 2,15 6,31 -4,1 0,-8 -4,8 3,29 4,38 1,14 1,27 1,40 1,10 0,20 0,29 0,33 9,-41 1,-8 -3,17 -7,33 -12,48 -2,6 -15,39 -3,10 11,-28 -4,7 -8,14 -9,17 -20,34 -31,50 -21,31 20,-22 1,-2 -7,8 -15,17 -23,26 -8,7 -15,14 -23,21 -3,3 -6,6 -10,9 -19,18 10,-8 13,-9 -20,8 -38,26 -58,35 -4,3 -8,4 -12,7 -15,7 -13,-4 14,-6 -9,1 -21,7 -30,10 -11,3 -21,5 -32,8 -6,1 -23,3 3,0 31,-4 -2,0 -6,0 -22,1 -43,0 -64,-2 -21,-1 36,8 16,2 -4,-1 -9,-1 -13,-2 -11,-3 -22,-6 -33,-9 -5,-2 -10,-5 -15,-6 0,0 32,17 21,8 -7,-5 -16,-8 -24,-12 -7,-4 -32,-23 -8,-4 24,18 -3,-3 -9,-9 -12,-12 -24,-25 -35,-39 -22,-25 19,28 5,7 -6,-8 -12,-17 -18,-25 -49,-74 -92,-149 -147,-219 -144,-181 -378,-281 -606,-282 -229,0 -460,94 -675,189 -113,50 -225,103 -338,153 -28,12 -56,25 -84,36 2,-1 27,-11 9,-4 -8,3 -16,7 -24,10 -16,7 -32,13 -49,20 -59,23 -119,45 -180,65 -120,39 -243,70 -367,93 -31,6 -61,12 -92,17 -15,2 -30,5 -45,7 -11,1 -63,9 -22,3 -23,4 -46,6 -68,9 -4,1 -18,5 -23,4 0,0 35,-5 16,-3 -27,4 -55,7 -83,10 -204,21 -411,21 -616,-3 -12,-1 -24,-3 -36,-4 -30,-4 35,5 -2,-1 -26,-4 -52,-8 -77,-12 -47,-8 -95,-18 -141,-28 -97,-22 -192,-49 -285,-82 -47,-16 -93,-33 -138,-51 -11,-4 -22,-9 -33,-13 -29,-12 30,13 2,0 -24,-10 -47,-20 -70,-31 -90,-41 -177,-87 -262,-137 -85,-50 -166,-102 -246,-159 -20,-14 -39,-28 -59,-43 -10,-7 -19,-14 -29,-21 -4,-3 -8,-7 -12,-10 12,9 24,19 4,4 -39,-31 -79,-63 -117,-96 -154,-131 -298,-275 -431,-427 -67,-78 -136,-155 -200,-236 -3,-4 -7,-8 -10,-13 -14,-17 19,26 6,9 -7,-10 -15,-20 -22,-30 -15,-20 -29,-40 -44,-60 -29,-42 -58,-85 -85,-129 -56,-87 -106,-178 -153,-270 -22,-45 -44,-90 -65,-136 -10,-23 -20,-46 -30,-69 -7,-16 6,16 6,15 -3,-6 -5,-13 -8,-20 -6,-13 -11,-26 -16,-39 -75,-188 -136,-381 -182,-577 -21,-94 -40,-188 -55,-282 -4,-23 -7,-46 -10,-68 -5,-30 4,37 0,0 -2,-13 -3,-25 -5,-38 -5,-45 -10,-91 -14,-137 -15,-195 -4,-389 -2,-584 1,-131 0,-262 -6,-393 -5,-114 -18,-227 -27,-342 -7,-95 -9,-191 -5,-287 1,-45 5,-90 9,-135 2,-23 4,-45 7,-67 5,-41 -4,30 0,1 2,-12 4,-25 6,-37 28,-177 77,-347 143,-513 14,-33 -12,28 0,2 4,-10 8,-20 12,-29 9,-21 19,-42 29,-62 18,-38 37,-75 58,-112 41,-76 88,-149 138,-220 12,-17 24,-33 36,-50 3,-4 6,-7 8,-11 11,-14 -13,18 -12,16 8,-9 15,-18 22,-28 27,-33 55,-66 83,-98 56,-62 116,-121 178,-177 32,-29 65,-56 98,-83 8,-6 16,-12 24,-19 -1,1 -33,26 -12,10 3,-3 7,-5 10,-8 18,-13 36,-26 54,-39 68,-48 139,-92 213,-133 37,-20 75,-40 113,-58 19,-9 38,-18 57,-26 9,-4 18,-8 28,-13 16,-7 -21,9 -19,9 7,-3 14,-6 20,-9 79,-32 159,-59 240,-82 81,-22 168,-41 254,-55 9,-1 18,-2 27,-4 28,-4 -41,5 -4,1 23,-3 45,-5 68,-8 44,-4 88,-7 132,-8 89,-3 177,-1 265,6 22,2 44,4 66,7 11,1 22,2 33,4 18,2 -23,-4 -21,-3 8,1 16,2 24,3 46,7 92,15 137,25 92,19 183,44 272,74 22,7 45,15 67,23 13,5 26,10 38,15 6,2 13,5 19,7 16,7 24,7 3,1 28,9 57,25 83,38 30,14 59,29 89,44 188,96 368,210 547,324 157,100 312,204 464,311 79,56 157,112 234,170 37,28 74,56 112,85 -38,-29 -7,-5 2,2 9,7 18,14 28,21 20,16 39,31 59,47 150,120 296,244 437,375 140,129 274,264 401,405 63,70 123,140 182,213 14,17 29,35 43,53 7,9 14,18 21,27 11,14 -12,-16 -11,-15 4,7 10,13 14,20 29,37 56,75 83,113 106,148 202,302 287,463 42,81 81,163 117,247 12,26 -15,-37 0,0 4,10 8,20 12,30 9,21 17,41 24,62 16,42 31,85 46,128 28,85 52,172 72,259 10,44 20,89 28,134 4,22 7,44 11,66 2,11 3,22 5,33 0,5 1,9 2,14 3,21 -5,-40 -2,-11 24,186 29,374 16,561 -3,46 -7,91 -12,136 -2,12 -3,24 -5,36 -2,22 5,-35 2,-13 0,5 -1,10 -2,15 -3,24 -7,48 -11,72 -17,98 -38,196 -64,292 -22,83 28,183 116,203 87,20 179,-26 202,-115l0 0z"/>
  </g>
 </g>
</svg>
