<?xml version="1.0" encoding="UTF-8"?>
<!DOCTYPE svg PUBLIC "-//W3C//DTD SVG 1.1//EN" "http://www.w3.org/Graphics/SVG/1.1/DTD/svg11.dtd">
<!-- Creator: CorelDRAW X7 -->
<svg xmlns="http://www.w3.org/2000/svg" xml:space="preserve" width="3.41333in" height="1.59666in" version="1.1" style="shape-rendering:geometricPrecision; text-rendering:geometricPrecision; image-rendering:optimizeQuality; fill-rule:evenodd; clip-rule:evenodd"
viewBox="0 0 3413 1597"
 xmlns:xlink="http://www.w3.org/1999/xlink"
 data-name="Layer 1">
 <defs>
  <style type="text/css">
   <![CDATA[
    .fil2 {fill:#1C7091}
    .fil3 {fill:#2E1E10}
    .fil1 {fill:#DECE87}
    .fil0 {fill:#F0EADF}
    .fil4 {fill:#373435;fill-rule:nonzero}
   ]]>
  </style>
 </defs>
 <g id="Layer_x0020_1">
  <metadata id="CorelCorpID_0Corel-Layer"/>
  <rect class="fil0" width="3413" height="1597"/>
  <g id="_2114850763328">
   <path class="fil1" d="M1235 468c-10,-2 -19,-4 -26,-5 -19,-4 -29,-6 -35,-11 -5,-6 -7,-16 -10,-37l0 0c-2,-7 -3,-17 -6,-28 0,-1 0,-1 0,-1 -1,0 -1,0 -2,1 -2,11 -3,21 -5,28 -3,21 -5,31 -10,36 -6,6 -15,8 -35,12l0 0c-7,1 -16,3 -26,5 -1,0 -1,1 -1,1 -1,1 0,1 1,2 10,2 19,4 26,5 20,4 29,6 35,11 5,6 7,16 10,37l0 0c2,7 3,17 5,28 0,0 1,1 1,1 1,0 1,-1 1,-1 3,-11 4,-21 6,-28 3,-21 5,-31 10,-37 6,-5 16,-7 35,-11l0 0c7,-1 16,-3 26,-5 1,-1 1,-1 1,-1 0,-1 0,-1 -1,-2l0 0z"/>
   <path class="fil1" d="M1229 470c-8,1 -15,3 -21,4l0 0c-19,4 -29,5 -35,12 -6,6 -8,16 -11,37 -2,7 -3,14 -4,22 -2,-8 -3,-15 -4,-22l0 0c-4,-21 -6,-31 -12,-37 -6,-7 -16,-8 -36,-12 -5,-1 -12,-3 -20,-4 8,-2 15,-4 20,-4l0 0c20,-4 30,-6 36,-12 6,-7 8,-17 12,-38 0,-6 2,-14 4,-22 1,8 2,16 4,22l0 0c3,21 5,31 11,38 6,6 16,8 35,12 6,0 13,2 21,4l0 0z"/>
  </g>
  <g id="_2114850764256">
   <path class="fil1" d="M1350 587c-11,-2 -19,-4 -27,-5 -19,-4 -29,-6 -34,-12 -5,-5 -7,-16 -11,-36l0 0c-1,-8 -3,-17 -5,-28 0,0 0,-1 -1,-1 -1,0 -1,0 -1,1 -2,11 -4,20 -5,28 -4,20 -5,30 -11,36 -5,6 -15,8 -34,12l0 0c-7,1 -16,3 -27,5 0,0 0,0 -1,1 0,1 1,2 1,2 11,2 19,4 27,5 19,3 29,5 34,11 6,6 7,16 11,36l0 0c1,8 3,17 5,28 0,1 0,1 1,2 0,0 1,-1 1,-2 2,-11 4,-20 5,-28 4,-20 6,-30 11,-36 5,-6 15,-8 34,-11l0 0c8,-1 16,-3 27,-5 0,0 1,-1 1,-1 0,-1 -1,-2 -1,-2l0 0z"/>
   <path class="fil1" d="M1344 588c-8,2 -15,3 -21,4l0 0c-20,4 -29,6 -36,13 -6,6 -8,16 -11,37 -1,6 -2,13 -4,22 -2,-8 -3,-16 -4,-22l0 0c-4,-21 -5,-31 -11,-37 -7,-7 -16,-9 -36,-13 -6,-1 -12,-2 -20,-4 7,-2 14,-3 20,-4l0 0c20,-4 30,-6 36,-12 6,-6 7,-17 11,-38 1,-6 2,-13 4,-21 2,8 3,15 4,21l0 0c3,21 5,32 11,38 7,6 16,8 36,12 6,1 13,2 21,4l0 0z"/>
  </g>
  <g id="_2114850764032">
   <path class="fil1" d="M1222 699c-10,-2 -19,-4 -26,-6 -19,-4 -29,-5 -34,-11 -6,-6 -8,-16 -12,-36l0 0c0,-8 -2,-17 -4,-28 0,0 -1,-1 -1,-1 -1,0 -2,0 -2,1 -2,11 -4,20 -5,28 -3,20 -5,30 -11,36 -5,6 -15,7 -34,11l0 0c-7,2 -16,4 -27,6 0,0 0,0 0,1 0,1 0,1 0,1 11,3 20,4 27,6 19,3 29,5 34,11 6,6 8,16 11,36l0 0c1,8 3,17 5,28 0,1 1,1 1,1 1,1 2,0 2,-1 2,-11 4,-20 4,-28 4,-20 6,-30 12,-36 5,-6 15,-8 34,-11l0 0c7,-2 16,-3 26,-6 1,0 1,0 1,-1 0,0 0,-1 -1,-1l0 0z"/>
   <path class="fil1" d="M1216 700c-8,2 -15,3 -21,4l0 0c-20,4 -29,6 -35,12 -6,7 -8,17 -12,38 -1,6 -2,13 -4,22 -1,-9 -2,-16 -3,-22l0 0c-4,-21 -6,-31 -12,-38 -6,-6 -16,-8 -35,-12 -6,-1 -13,-2 -21,-4 8,-2 15,-3 21,-4l0 0c19,-4 29,-6 35,-12 6,-7 8,-17 12,-38 1,-6 2,-13 3,-21 2,8 3,15 4,21l0 0c4,21 6,31 12,38 6,6 15,8 35,12 6,1 13,2 21,4l0 0z"/>
  </g>
  <path class="fil2" d="M1297 924c-33,7 -64,-1 -94,-16 -3,-2 -29,-12 -41,-13 -13,0 -48,-5 -55,-22 0,0 0,-1 -1,-2 -9,18 -29,34 -36,51 8,-3 15,3 25,18 18,24 30,51 38,80 3,13 3,13 -11,15 -28,3 -80,13 -115,2 -25,-6 -47,-16 -64,-19 -46,-15 -87,3 -187,3 -9,-1 -17,-5 -20,-6 0,0 -39,-25 -65,-32 -34,-9 -88,-8 -96,-7 -3,0 -44,7 -65,0 -21,-7 -42,-16 -63,-24 -5,-2 -8,-6 -11,-10 -15,-5 -30,-7 -45,-14 0,1 0,1 0,2l-11 -1c-31,-6 -60,-1 -89,9 2,9 4,17 6,24 32,82 56,105 97,149 99,107 208,178 347,197 114,16 230,-5 356,-98 83,-62 185,-161 214,-271 2,-10 -3,-17 -14,-15l0 0zm-286 277c-2,5 -6,10 -11,12 -4,3 -12,4 -17,2 -16,-6 -34,-11 -52,-13 -16,-2 -33,-2 -49,0 -11,1 -21,4 -31,7 -11,3 -22,7 -33,10 -36,8 -74,4 -109,-7 -19,-5 -37,-12 -58,-15 -8,-1 -17,-1 -26,0 -6,1 -12,2 -18,5 1,-1 3,-1 4,-2 -6,3 -11,3 -17,2 -6,-1 -10,-5 -14,-9 -3,-5 -4,-12 -2,-17 2,-4 6,-10 10,-12 10,-4 18,-7 28,-8 10,-1 20,-2 29,-1 22,1 43,6 63,13 16,5 32,10 50,12 12,2 25,2 37,0 7,-1 13,-2 19,-4 7,-2 14,-4 21,-7 51,-16 110,-13 160,6 5,2 10,5 13,9 3,5 4,11 3,17l0 0zm43 -69c-17,4 -33,4 -50,2 -12,-2 -23,-6 -35,-9 -9,-3 -19,-6 -28,-9 -14,-4 -26,-8 -40,-10 -8,0 -16,0 -23,0 -12,2 -23,6 -35,10 -10,4 -20,9 -31,12 -10,3 -21,4 -32,5 -32,3 -65,-5 -96,-14 -27,-9 -54,-20 -82,-24 -9,-1 -17,-1 -26,-1 -8,2 -17,4 -25,8 -16,6 -31,14 -48,19 -11,5 -24,-4 -27,-14 -2,-5 -1,-12 2,-16 3,-6 8,-8 14,-10 1,-1 4,-2 6,-3 21,-8 41,-19 63,-23 66,-14 124,27 187,36 11,1 23,1 34,0 10,-2 21,-4 31,-8 16,-7 32,-14 50,-16 12,-3 26,-4 39,-3 12,2 24,4 35,8 12,3 23,6 35,9 15,5 30,10 45,12 5,1 10,1 15,0 3,0 5,-1 8,-1 12,-4 24,4 27,15 3,10 -3,21 -13,25l0 0z"/>
  <g id="_2114850759584">
   <g>
    <path class="fil3" d="M1042 1393c20,17 41,29 65,34 45,12 91,9 135,-4 77,-23 143,-65 199,-124 10,-10 18,-23 28,-34 4,-4 12,-9 15,-8 5,3 9,10 9,16 0,13 -1,26 -5,38 -23,80 -67,146 -134,197 -45,35 -96,54 -153,61 -76,9 -144,-13 -208,-51 -32,-19 -64,-40 -97,-58 -31,-17 -65,-24 -100,-25 -82,-2 -161,-18 -237,-49 -96,-39 -177,-99 -246,-176 -60,-69 -104,-147 -132,-234 -29,-90 -39,-182 -30,-275 7,-77 27,-150 60,-219 41,-87 99,-159 174,-220 94,-78 203,-126 324,-142 101,-15 202,-9 300,23 126,40 231,109 314,212 64,78 106,167 127,267 13,66 17,132 11,200 -7,80 -26,158 -60,230 -59,124 -143,225 -263,294 -27,16 -56,27 -84,41 -4,2 -7,4 -12,6l0 0zm355 -636c0,-43 -4,-86 -12,-130 -32,-150 -111,-269 -236,-357 -73,-51 -154,-82 -242,-96 -99,-16 -196,-8 -291,22 -95,30 -177,82 -247,153 -72,73 -122,161 -148,261 -22,82 -25,166 -11,249 18,120 68,226 151,316 106,117 239,182 395,196 116,11 227,-12 329,-69 116,-64 201,-158 256,-278 38,-84 57,-172 56,-267l0 0z"/>
    <path class="fil3" d="M736 634c-23,0 -34,-3 -50,-14 -3,0 -5,-2 -8,-4 -6,-5 -8,-12 -4,-19 4,-7 11,-7 18,-3 23,12 47,13 72,4 14,-4 26,-14 32,-29 3,-7 1,-11 -7,-14 -13,-6 -26,-13 -37,-23 -14,-13 -12,-31 3,-44 20,-19 62,-23 86,-9 22,13 27,33 12,53 -5,7 -11,14 -18,19 -10,7 -11,17 -8,27 2,5 10,12 16,12 16,2 32,0 48,0 1,0 2,0 3,0 5,1 9,8 5,12 0,1 -1,1 -1,1 -26,16 -53,18 -81,7 -7,-4 -13,-3 -19,2 -17,14 -44,22 -62,22l0 0z"/>
    <path class="fil3" d="M645 524c1,0 1,0 2,0 5,1 14,2 21,4 2,1 3,2 4,3 3,4 1,11 -4,12 -1,0 -2,0 -2,0 -37,-4 -71,1 -106,15 0,1 -2,1 -4,1 -5,-1 -8,-7 -6,-11 1,-2 2,-3 3,-4 20,-6 40,-12 60,-17 9,-2 20,-2 32,-3l0 0z"/>
    <path class="fil3" d="M669 561l0 0c5,4 5,10 0,14 0,0 -1,0 -1,0 -30,10 -57,23 -80,45 0,1 -1,2 -2,2 -6,2 -12,-2 -12,-8 1,-3 1,-5 2,-6 16,-13 34,-26 52,-36 10,-6 21,-8 33,-12 3,-2 6,-1 8,1l0 0z"/>
   </g>
   <path class="fil3" d="M740 1016c2,-1 5,-2 7,-2 30,0 54,-13 73,-37 14,-17 15,-37 5,-57 -18,-41 -52,-67 -94,-81 -15,-5 -31,-9 -47,-11 -35,-4 -60,-22 -82,-47 -6,-7 -12,-12 -18,-18 -3,-2 -8,-2 -11,-1 -1,2 -2,7 -1,10 12,35 48,85 103,88 40,2 76,15 103,45 9,10 17,20 19,35 1,3 -2,4 -4,2 -5,-6 -8,-10 -13,-14l0 0c-6,-6 -16,-1 -15,7 1,1 1,2 1,2 3,9 8,18 11,27 1,1 2,3 2,5 0,3 -4,6 -7,4 -2,-1 -4,-3 -5,-5 -7,-7 -14,-16 -22,-22 0,-1 -1,-1 -1,-2 -6,-2 -13,2 -13,9 0,1 0,3 1,3 2,7 6,13 10,20 2,2 -1,5 -3,4 -5,-2 -9,-4 -13,-5 -4,-2 -8,-4 -11,-7 -28,-26 -63,-29 -99,-25 -33,3 -63,-3 -89,-24 -3,-3 -6,-5 -9,-5 -3,-1 -9,-1 -11,2 -2,1 -2,8 0,11 14,25 36,40 62,49 34,1 68,0 102,9 26,6 45,24 69,31l0 0z"/>
   <path class="fil3" d="M433 934c-8,-54 -6,-109 2,-162 8,-58 16,-115 26,-172 7,-40 16,-79 26,-118 1,-4 6,-7 10,-10 4,-4 11,-8 13,-13 1,-5 -4,-13 -8,-17 -7,-8 -16,-14 -24,-21 -2,-2 -4,-5 -5,-8 -4,-10 -7,-20 2,-28 7,-7 17,-4 25,1 6,4 12,8 18,13 8,8 16,11 25,3 8,-7 5,-15 0,-23 -1,-1 -2,-3 -4,-6 9,-10 18,-21 29,-30 39,-34 84,-52 136,-58 49,-5 96,0 142,22 61,29 97,78 113,143 5,22 10,44 15,66 0,3 -3,8 -5,10 -6,4 -14,5 -21,9 -1,1 -2,2 -2,3 -3,4 -1,8 2,11 2,1 3,1 5,1 9,-2 17,-5 27,-8l0 23c-9,0 -17,-1 -26,0 -2,1 -3,1 -5,3 -3,3 -3,8 1,11 1,1 2,2 4,2 7,1 15,1 24,1 -3,18 -11,32 -20,44 -41,48 -94,71 -155,75 -14,1 -29,-1 -43,-2 -8,-1 -16,2 -18,10 -2,9 6,12 12,15 52,14 101,8 150,-13 4,-2 8,-4 13,-6 8,33 25,61 52,83 -16,9 -30,15 -43,23 -25,15 -41,38 -43,68 -3,38 23,72 64,84 38,11 78,0 105,-28 8,-7 14,-12 18,-13 7,-17 27,-33 36,-51 -9,-25 -24,-46 -44,-63 -26,-22 -53,-42 -80,-62 -19,-14 -27,-33 -28,-54 0,-6 2,-11 6,-16 11,-17 25,-33 36,-50 7,-12 11,-25 17,-37 3,1 6,1 8,2 10,4 18,8 28,11 1,1 2,1 4,1 5,-1 7,-5 6,-10 -1,-2 -1,-3 -3,-3 -5,-5 -11,-9 -17,-10 -22,-3 -27,-16 -26,-35 1,-9 2,-12 10,-12 10,0 19,1 28,-1 1,0 2,0 3,-1 4,-3 4,-8 1,-11 -1,-1 -1,-2 -2,-2 -3,-2 -7,-2 -11,-2 -11,0 -22,0 -35,0 0,-2 -2,-7 -3,-11 -5,-26 -11,-51 -14,-76 -2,-8 0,-18 4,-26 7,-17 11,-34 6,-52 -6,-24 -33,-40 -54,-32 -11,4 -17,1 -25,-5 -97,-76 -202,-87 -315,-41 -33,14 -60,37 -84,63 -7,9 -14,13 -26,9 -12,-4 -25,-2 -37,5 -33,19 -38,66 -10,94 6,6 6,10 4,18 -9,37 -19,73 -26,111 -10,49 -16,100 -24,149 -11,69 -19,137 -12,206 15,7 30,9 45,14 -1,-2 -2,-5 -3,-8l0 0zm566 -117c20,0 33,11 45,25 21,25 21,25 1,52 -10,15 -22,28 -39,38 -4,2 -9,-2 -8,-6 0,-2 1,-3 1,-5 1,-6 4,-12 4,-17 0,-1 0,-2 0,-3 -1,-6 -8,-10 -14,-6 0,0 -1,1 -1,1 -7,9 -13,18 -19,27 -1,1 -2,2 -2,3 -6,8 -19,2 -16,-8 0,0 0,0 0,0 4,-9 7,-19 8,-29 0,0 0,-1 0,-2 0,-6 -8,-10 -14,-6 -1,0 -2,0 -2,1 -4,5 -8,10 -12,15 -3,6 -11,4 -12,-2 -4,-11 -1,-25 8,-38 17,-25 42,-38 72,-40z"/>
   <path class="fil3" d="M669 439c0,-1 0,-4 1,-6 2,-9 8,-15 17,-16 8,-1 14,4 18,14 4,11 -1,27 -11,31 -13,5 -24,-5 -25,-23l0 0z"/>
   <path class="fil3" d="M869 433c0,-12 6,-21 15,-23 13,-1 24,12 22,27 -2,10 -7,17 -15,19 -11,2 -20,-6 -22,-18 0,-2 0,-4 0,-5l0 0z"/>
  </g>
  <g id="_2114850790560">
   <path class="fil3" d="M1835 653c11,11 22,21 33,31 -12,12 -22,22 -33,33 -10,-10 -19,-20 -29,-31 -4,-5 -6,-5 -12,-2 -73,38 -172,-6 -182,-101 -4,-49 11,-90 51,-120 64,-48 182,-26 203,81 8,41 -3,77 -31,109l0 0zm-34 -37c15,-26 19,-52 9,-80 -20,-54 -90,-67 -126,-23 -21,25 -24,54 -14,85 8,27 26,44 54,50 15,3 29,2 47,-7 -15,-13 -27,-24 -40,-36 11,-10 22,-19 33,-29 12,14 24,27 37,40l0 0z"/>
   <path class="fil3" d="M2357 444c11,0 21,0 32,0 30,1 60,-1 89,2 30,4 54,19 65,48 12,31 10,61 -11,88 -7,8 -17,15 -27,22 16,28 33,57 50,88 -20,0 -37,1 -55,0 -3,0 -5,-4 -7,-7 -13,-23 -26,-45 -38,-68 -3,-5 -6,-7 -12,-7 -11,0 -22,0 -34,0l0 82 -52 0 0 -248 0 0zm52 120c17,0 33,0 49,0 7,-1 13,-2 19,-5 13,-5 21,-20 20,-37 -2,-15 -11,-27 -25,-28 -20,-1 -42,0 -63,0l0 70 0 0z"/>
   <path class="fil3" d="M3220 518l-46 0c-5,-8 -9,-18 -15,-24 -13,-12 -43,-13 -58,-4 -16,10 -16,36 1,43 15,6 32,9 48,13 11,4 22,6 33,10 25,9 42,25 45,51 4,30 -5,54 -29,72 -36,26 -105,24 -140,-5 -18,-16 -25,-36 -28,-61 17,0 33,0 49,1 2,0 5,2 5,4 2,21 16,29 34,31 12,1 24,0 36,-2 14,-2 21,-12 22,-25 0,-12 -7,-22 -21,-25 -19,-6 -38,-9 -57,-14 -8,-2 -16,-5 -24,-8 -52,-21 -47,-81 -22,-107 20,-22 46,-29 75,-29 19,0 38,3 55,13 25,14 37,36 38,66l-1 0z"/>
   <path class="fil3" d="M2792 445l54 0c0,3 0,7 0,10 0,47 0,92 1,139 0,7 0,14 1,20 6,23 25,35 51,34 25,-2 42,-15 45,-38 1,-7 2,-13 2,-20 0,-44 0,-89 0,-134 0,-3 0,-7 0,-11l54 0c0,3 0,6 0,9 0,47 0,94 0,140 0,61 -40,102 -101,103 -50,1 -88,-23 -102,-67 -3,-10 -5,-21 -5,-32 0,-48 0,-95 0,-143 0,-3 0,-6 0,-10l0 0z"/>
   <path class="fil3" d="M2053 445l54 0c0,2 0,5 0,9 0,48 0,96 0,144 0,57 -41,98 -97,99 -32,1 -61,-7 -84,-31 -16,-18 -24,-39 -24,-63 0,-51 0,-103 0,-154 0,-2 0,-3 1,-4l52 0c0,3 0,7 0,10 0,47 0,94 -1,141 -1,46 45,61 74,46 18,-8 25,-24 25,-43 0,-50 0,-101 -1,-151 0,-1 1,-2 1,-3l0 0z"/>
   <polygon class="fil3" points="2150,692 2150,445 2317,445 2317,492 2205,492 2205,544 2310,544 2310,589 2205,589 2205,645 2319,645 2319,692 "/>
   <polygon class="fil3" points="2757,692 2588,692 2588,445 2756,445 2756,492 2640,492 2640,544 2747,544 2747,589 2640,589 2640,645 2757,645 "/>
  </g>
  <path class="fil4" d="M1835 1074c0,-12 -4,-21 -13,-28 -8,-7 -24,-14 -46,-20 -22,-6 -39,-13 -49,-21 -15,-10 -22,-24 -22,-41 0,-16 7,-30 20,-40 14,-11 31,-16 53,-16 14,0 27,3 38,8 12,6 20,14 27,24 6,9 9,21 9,33l-19 0c0,-15 -5,-27 -15,-36 -10,-9 -23,-13 -40,-13 -17,0 -30,3 -40,11 -10,7 -14,17 -14,29 0,11 4,20 12,27 9,7 24,13 43,18 19,5 34,11 44,16 10,6 17,13 23,21 5,8 7,17 7,28 0,17 -7,31 -20,41 -14,11 -32,16 -54,16 -15,0 -29,-3 -42,-8 -13,-6 -22,-14 -29,-23 -7,-10 -10,-21 -10,-34l18 0c0,15 6,27 17,36 12,9 27,13 46,13 17,0 30,-3 41,-11 10,-7 15,-17 15,-30z"/>
  <path id="_1" class="fil4" d="M2052 1031c0,21 -4,39 -11,54 -7,15 -18,27 -31,35l40 34 -13 11 -44 -37c-9,1 -17,3 -26,3 -16,0 -30,-4 -43,-12 -13,-9 -23,-20 -30,-35 -7,-15 -11,-32 -11,-52l0 -24c0,-20 4,-37 11,-52 7,-16 17,-28 29,-36 13,-8 28,-12 44,-12 17,0 32,4 45,12 13,8 23,20 30,35 7,15 10,33 10,53l0 23zm-18 -23c0,-26 -6,-47 -18,-62 -12,-14 -28,-22 -49,-22 -20,0 -36,8 -48,22 -12,15 -17,36 -17,62l0 23c0,26 5,46 17,61 12,15 28,23 48,23 21,0 38,-7 49,-23 12,-14 18,-35 18,-61l0 -23z"/>
  <polygon id="_2" class="fil4" points="2117,1112 2224,1112 2224,1128 2098,1128 2098,911 2117,911 "/>
  <polygon id="_3" class="fil4" points="2453,1024 2351,1024 2351,1112 2468,1112 2468,1128 2333,1128 2333,911 2467,911 2467,927 2351,927 2351,1008 2453,1008 "/>
  <path id="_4" class="fil4" d="M2519 967l1 27c6,-10 13,-17 22,-22 9,-6 19,-8 30,-8 17,0 30,4 39,14 8,10 12,25 13,44l0 106 -18 0 0 -106c-1,-14 -3,-25 -9,-32 -6,-7 -16,-11 -29,-11 -11,0 -21,4 -29,11 -9,6 -15,16 -19,27l0 111 -18 0 0 -161 17 0z"/>
  <path id="_5" class="fil4" d="M2662 1046c0,-26 6,-46 17,-60 11,-15 26,-22 45,-22 23,0 39,8 50,26l2 -23 16 0 0 157c0,21 -6,37 -17,49 -12,13 -28,18 -47,18 -12,0 -23,-2 -33,-7 -10,-5 -18,-12 -24,-20l10 -11c13,16 28,24 45,24 15,0 27,-5 35,-13 8,-9 13,-21 13,-37l0 -20c-11,16 -28,24 -50,24 -19,0 -33,-8 -45,-23 -11,-15 -17,-35 -17,-60l0 -2zm18 3c0,20 4,37 13,48 8,12 19,18 35,18 21,0 37,-10 46,-29l0 -75c-4,-11 -10,-18 -18,-23 -8,-6 -17,-9 -28,-9 -15,0 -27,6 -35,18 -9,11 -13,29 -13,52z"/>
  <path id="_6" class="fil4" d="M2858 1128l-18 0 0 -161 18 0 0 161zm-21 -208c0,-3 1,-6 3,-8 3,-3 5,-3 9,-3 4,0 7,0 10,3 1,2 3,5 3,8 0,4 -2,7 -3,9 -3,2 -6,3 -10,3 -4,0 -6,-1 -9,-3 -2,-2 -3,-5 -3,-9z"/>
  <path id="_7" class="fil4" d="M2923 967l1 27c6,-10 13,-17 23,-22 8,-6 19,-8 29,-8 18,0 31,4 39,14 8,10 12,25 13,44l0 106 -18 0 0 -106c0,-14 -3,-25 -9,-32 -6,-7 -16,-11 -29,-11 -11,0 -21,4 -29,11 -8,6 -15,16 -19,27l0 111 -18 0 0 -161 17 0z"/>
  <path id="_8" class="fil4" d="M3136 1131c-13,0 -26,-3 -37,-11 -11,-6 -20,-16 -26,-28 -6,-12 -9,-25 -9,-40l0 -7c0,-15 3,-29 9,-41 6,-13 14,-22 25,-29 11,-7 22,-11 35,-11 19,0 35,6 46,20 12,13 17,31 17,55l0 9 -114 0 0 4c0,18 5,33 15,45 11,13 24,19 40,19 10,0 18,-2 25,-5 8,-4 14,-10 20,-17l11 8c-13,19 -32,29 -57,29zm-3 -152c-14,0 -25,5 -34,15 -9,10 -15,22 -17,39l96 0 0 -2c0,-15 -4,-28 -12,-38 -9,-9 -19,-14 -33,-14z"/>
 </g>
</svg>
